<?xml version="1.0" encoding="UTF-8" standalone="no"?><!DOCTYPE svg PUBLIC "-//W3C//DTD SVG 1.1//EN" "http://www.w3.org/Graphics/SVG/1.1/DTD/svg11.dtd"><svg width="100%" height="100%" viewBox="0 0 813 802" version="1.1" xmlns="http://www.w3.org/2000/svg" xmlns:xlink="http://www.w3.org/1999/xlink" xml:space="preserve" xmlns:serif="http://www.serif.com/" style="fill-rule:evenodd;clip-rule:evenodd;stroke-linejoin:round;stroke-miterlimit:2;"><circle cx="408.698" cy="398.885" r="386.742"/><path id="Tronc" d="M326.524,303.779c-8.574,2.37 -12.519,7.825 -13.645,15.16c145.244,122.069 232.034,242.579 225.757,360.606c11.488,11.574 29.67,15.95 61.364,11.364c15.1,-109.743 -93.374,-245.994 -273.476,-387.13Z" style="fill:#986052;"/><g id="Feuille-BG" serif:id="Feuille BG"><path d="M262.64,531.067c71.227,75.849 158.883,91.272 261.356,52.201" style="fill:#78b251;"/><path d="M523.996,583.268c-33.781,-34.113 -72.593,-60.485 -120.144,-73.413c-58.621,-8.587 -106.422,-2.506 -141.212,21.212c43.855,2.2 92.585,4.86 140.147,15.004l121.209,37.197Z" style="fill:#5b903e;"/></g><g id="Feuille-MG" serif:id="Feuille MG"><path d="M172.741,398.885c70.895,79.892 159.97,97.163 268.101,48.796" style="fill:#77b256;"/><path d="M440.842,447.681c-33.419,-35.389 -73.021,-63.169 -127.963,-72.069c-57.088,-8.67 -102.91,0.499 -140.138,23.273c45.941,0.545 92.541,5.041 140.138,15.515c45.717,7.521 87.225,19.952 127.963,33.281Z" style="fill:#5b913c;"/></g><g id="Feuille-HG" serif:id="Feuille HG"><path d="M112.028,198.77c-10.688,70.302 69.551,125.068 207.443,110.471" style="fill:#a3d389;"/><path d="M319.471,309.241c10.71,-29.613 -1.346,-60.279 -64.1,-93.287c-46.832,-23.098 -94.841,-24.645 -143.343,-17.184c42.748,14.027 82.024,31.584 116.427,54.096c33.925,16.969 63.767,36.012 91.016,56.375Z" style="fill:#71b257;"/></g><g id="Feuille-BD" serif:id="Feuille BD"><path d="M540.929,506.156c10.685,22.7 49.796,29.813 110.816,24.911c47.204,-16.88 59.962,-41.066 53.581,-69.311c-25.138,8.718 -44.966,24.945 -80.372,36.484c-37.06,12.078 -64.827,5.581 -84.025,7.916Z" style="fill:#a4cd84;"/><path d="M540.929,506.156c10.601,-56.588 64.494,-72.244 164.397,-44.4" style="fill:#7ab455;"/></g><g id="Feuille-HG1" serif:id="Feuille HG"><path d="M457.137,416.09c153.934,13.826 217.031,-70.655 144.259,-133.954" style="fill:#a4d28d;"/><path d="M457.137,416.09c-22.003,-31.113 -34.894,-61.845 -17.891,-91.332c40.934,-44.812 96.86,-54.641 162.15,-42.622l-92.738,60.888c-26.621,22.781 -44.384,47.038 -51.521,73.066Z" style="fill:#76b151;"/></g></svg>