<?xml version="1.0" encoding="UTF-8" standalone="no"?><!DOCTYPE svg PUBLIC "-//W3C//DTD SVG 1.1//EN" "http://www.w3.org/Graphics/SVG/1.1/DTD/svg11.dtd"><svg width="100%" height="100%" viewBox="0 0 4763 2600" version="1.1" xmlns="http://www.w3.org/2000/svg" xmlns:xlink="http://www.w3.org/1999/xlink" xml:space="preserve" xmlns:serif="http://www.serif.com/" style="fill-rule:evenodd;clip-rule:evenodd;stroke-linejoin:round;stroke-miterlimit:2;"><path id="Tronc" d="M1031.35,553.247c-35.722,9.875 -52.162,32.605 -56.853,63.167c605.183,508.619 966.808,1010.74 940.657,1502.53c47.865,48.223 123.625,66.459 255.681,47.349c62.916,-457.261 -389.06,-1024.98 -1139.49,-1613.04Z" style="fill:#986052;"/><g id="Feuille-BG" serif:id="Feuille BG"><path d="M765.167,1500.28c296.779,316.038 662.013,380.301 1088.98,217.507" style="fill:#78b251;"/><path d="M1854.15,1717.79c-140.752,-142.139 -302.471,-252.022 -500.598,-305.891c-244.256,-35.779 -443.425,-10.44 -588.384,88.384c182.729,9.168 385.771,20.251 583.946,62.518l505.036,154.989Z" style="fill:#5b903e;"/></g><g id="Feuille-MG" serif:id="Feuille MG"><path d="M390.586,949.521c295.396,332.882 666.543,404.844 1117.09,203.315" style="fill:#77b256;"/><path d="M1507.68,1152.84c-139.248,-147.455 -304.255,-263.205 -533.182,-300.284c-237.867,-36.125 -428.79,2.077 -583.909,96.969c191.423,2.27 385.59,21.003 583.909,64.647c190.488,31.335 363.438,83.13 533.182,138.668Z" style="fill:#5b913c;"/></g><g id="Feuille-HG" serif:id="Feuille HG"><path d="M137.616,115.71c-44.531,292.922 289.798,521.116 864.346,460.293" style="fill:#a3d389;"/><path d="M1001.96,576.003c44.624,-123.388 -5.608,-251.161 -267.083,-388.696c-195.133,-96.241 -395.173,-102.686 -597.263,-71.597c178.119,58.444 341.769,131.599 485.113,225.4c141.356,70.701 265.698,150.05 379.233,234.893Z" style="fill:#71b257;"/></g><g id="Feuille-BD" serif:id="Feuille BD"><path d="M1924.7,1396.48c44.522,94.586 207.485,124.221 461.733,103.796c196.685,-70.33 249.844,-171.105 223.256,-288.796c-104.743,36.326 -187.36,103.938 -334.884,152.017c-154.418,50.325 -270.114,23.254 -350.105,32.983Z" style="fill:#a4cd84;"/><path d="M1924.7,1396.48c44.171,-235.78 268.725,-301.017 684.989,-185" style="fill:#7ab455;"/></g><g id="Feuille-HG1" serif:id="Feuille HG"><path d="M1575.57,1021.21c641.39,57.609 904.296,-294.396 601.078,-558.139" style="fill:#a4d28d;"/><path d="M1575.57,1021.21c-91.682,-129.635 -145.394,-257.687 -74.546,-380.549c170.557,-186.715 403.583,-227.67 675.624,-177.59l-386.407,253.699c-110.92,94.92 -184.934,195.99 -214.671,304.44Z" style="fill:#76b151;"/></g><g id="Nom"><g><path d="M2571.56,2026.16c17.456,-27.661 26.184,-58.142 26.184,-91.443c0,-30.347 -10.07,-60.828 -30.212,-91.443c46.191,19.605 69.287,50.488 69.287,92.651c0,42.701 -21.753,72.779 -65.259,90.235Zm-245.324,-197.791l-0,424.585l-17.322,0c-6.714,0 -17.322,0.806 -31.824,2.417c-12.353,1.612 -26.855,2.417 -43.506,2.417l0,-7.251c17.188,-1.88 31.421,-10.339 42.7,-25.378c11.28,-15.039 16.919,-44.043 16.919,-87.012l0,-207.055c0,-58.545 -19.873,-91.98 -59.619,-100.306l0,-7.251c17.188,1.88 48.071,3.492 92.652,4.834Zm62.841,110.779l0,87.415c15.845,4.028 33.033,6.042 51.563,6.042c60.425,0 90.637,-31.421 90.637,-94.263c0,-58.813 -29.944,-88.22 -89.832,-88.22c-19.335,0 -34.374,3.894 -45.117,11.682c-4.834,10.743 -7.251,36.524 -7.251,77.344Zm-21.753,313.806l-11.682,0l0,-424.585c16.114,0 33.301,-0.671 51.563,-2.014c20.947,-1.88 38,-2.82 51.159,-2.82c36.792,0 64.185,11.28 82.178,33.838c17.993,22.29 26.99,49.817 26.99,82.581c-0,55.591 -23.499,91.174 -70.496,106.75c23.365,3.223 42.969,10.205 58.814,20.948c16.919,11.547 42.566,34.643 76.941,69.287c52.368,53.174 95.068,79.76 128.1,79.76c6.714,0 13.562,-2.282 20.545,-6.848l1.611,7.251c-10.742,13.965 -25.647,20.948 -44.714,20.948c-20.41,-0 -41.761,-7.654 -64.051,-22.962c-20.947,-14.502 -52.233,-42.969 -93.859,-85.4c-49.952,-51.563 -98.56,-77.344 -145.826,-77.344c29.273,9.131 68.885,39.88 118.836,92.248c35.18,36.524 63.379,63.111 84.595,79.761c21.484,16.651 42.028,24.976 61.633,24.976l-0,3.625c-9.131,3.223 -18.128,4.834 -26.99,4.834c-26.05,0 -48.608,-6.579 -67.676,-19.738c-10.205,-7.251 -23.163,-18.329 -38.873,-33.234c-15.71,-14.905 -34.576,-34.174 -56.598,-57.807c-32.226,-34.375 -56.128,-57.739 -71.704,-70.092c-16.65,-12.622 -32.898,-21.485 -48.743,-26.587l0,95.471c0,64.185 19.336,99.097 58.008,104.736l0,7.251c-32.226,-3.222 -58.813,-4.834 -79.761,-4.834Z" style="fill:#96b490;fill-rule:nonzero;"/><path d="M2851.93,1985.88c-24.975,27.661 -37.463,68.481 -37.463,122.461c-0,53.979 12.488,95.337 37.463,124.072c-46.46,-26.318 -69.69,-68.213 -69.69,-125.684c0,-56.665 23.23,-96.948 69.69,-120.849Zm221.558,242.102c24.707,-27.661 37.061,-66.065 37.061,-115.21c-0,-26.587 -2.955,-51.563 -8.863,-74.927c-6.177,-23.901 -15.576,-41.357 -28.198,-52.368c46.997,26.05 70.496,66.064 70.496,120.044c-0,51.831 -23.499,92.651 -70.496,122.461Zm-197.791,-122.058c0,49.145 7.52,82.446 22.559,99.902c15.039,17.456 36.389,26.184 64.05,26.184c26.05,0 47.132,-9.131 63.245,-27.393c15.845,-18.261 23.767,-51.562 23.767,-99.902c0,-81.372 -29.004,-122.058 -87.012,-122.058c-57.739,0 -86.609,41.089 -86.609,123.267Zm-33.837,6.445c-0,-52.1 10.607,-90.906 31.823,-116.419c21.485,-25.781 51.026,-38.671 88.623,-38.671c34.912,-0 63.782,11.413 86.609,34.24c22.827,22.827 34.241,60.559 34.241,113.196c-0,57.739 -12.219,98.023 -36.658,120.85c-24.707,23.095 -53.174,34.643 -85.4,34.643c-33.032,0 -61.096,-12.085 -84.192,-36.255c-23.364,-23.901 -35.046,-61.096 -35.046,-111.584Z" style="fill:#96b490;fill-rule:nonzero;"/><path d="M3204,2145.81l6.042,-0c8.057,24.976 21.35,45.789 39.88,62.439c18.799,16.65 38.941,24.976 60.425,24.976c16.919,-0 31.555,-4.297 43.909,-12.891c11.816,-8.594 17.724,-18.665 17.724,-30.212c0,-12.354 -6.042,-22.291 -18.127,-29.81c-12.353,-7.52 -34.912,-14.636 -67.676,-21.35c-32.226,-6.983 -56.262,-17.255 -72.107,-30.817c-15.844,-13.562 -23.767,-30.548 -23.767,-50.958c0,-15.845 5.237,-30.75 15.711,-44.714c-1.075,6.713 -1.612,12.89 -1.612,18.53c0,13.428 4.029,26.05 12.085,37.866c7.52,11.279 18.128,19.873 31.824,25.781c13.428,5.909 35.986,12.757 67.676,20.545c30.078,7.251 51.965,16.113 65.661,26.587c13.428,10.473 20.142,25.647 20.142,45.52c0,20.947 -8.459,38.134 -25.378,51.562c-16.651,13.159 -40.955,19.739 -72.913,19.739c-28.198,-0 -60.693,-6.848 -97.485,-20.544c-0,-20.411 -0.537,-34.913 -1.612,-43.506c-0.805,-8.057 -1.208,-16.651 -1.208,-25.782c-0,-5.102 0.268,-12.756 0.806,-22.961Zm230.017,-87.415l-5.64,0c-9.399,-24.707 -24.438,-43.371 -45.117,-55.993c-20.41,-12.354 -41.089,-18.53 -62.036,-18.53c-16.382,-0 -30.884,3.222 -43.506,9.667c-12.354,6.714 -18.53,16.248 -18.53,28.602c-0,9.399 4.565,16.65 13.696,21.752c8.594,4.834 25.513,9.937 50.757,15.308c52.099,11.011 85.803,25.11 101.11,42.297c15.308,17.188 22.962,35.315 22.962,54.383c-0,16.382 -7.52,34.778 -22.559,55.188c2.149,-9.937 3.223,-18.396 3.223,-25.379c-0,-20.678 -6.982,-39.611 -20.947,-56.799c-13.697,-16.919 -45.789,-31.287 -96.277,-43.103c-29.81,-6.982 -50.488,-14.771 -62.036,-23.364c-11.817,-8.863 -17.725,-21.887 -17.725,-39.075c0,-19.336 8.728,-34.912 26.184,-46.728c17.188,-11.548 42.566,-17.322 76.135,-17.322c31.958,-0 64.722,6.579 98.291,19.739c-0.537,6.445 -0.805,10.07 -0.805,10.876c-0,9.937 0.537,20.41 1.611,31.421c0.806,9.668 1.209,22.021 1.209,37.06Z" style="fill:#96b490;fill-rule:nonzero;"/><path d="M3549.63,2105.93c-16.919,21.215 -25.378,44.445 -25.378,69.69c-0,29.809 10.474,54.248 31.421,73.315c-16.382,-3.76 -30.884,-11.951 -43.506,-24.573c-13.159,-12.353 -19.739,-28.467 -19.739,-48.34c0,-34.643 19.068,-58.007 57.202,-70.092Zm259.021,151.867l-77.343,-4.834l-0,-209.07c-0,-21.215 -2.014,-36.792 -6.043,-46.728c-4.565,-10.205 -12.488,-18.933 -23.767,-26.184c23.364,4.565 39.209,12.891 47.534,24.975c8.325,12.354 12.488,34.51 12.488,66.468l0,124.475c0,21.216 2.954,36.389 8.862,45.52c5.64,9.131 18.396,15.173 38.269,18.127l0,7.251Zm-133.74,-38.269l0,-105.139c-8.862,-1.074 -16.382,-1.611 -22.558,-1.611c-21.216,-0 -37.732,6.445 -49.549,19.336c-11.816,13.159 -17.724,28.198 -17.724,45.117c-0,15.307 4.968,28.332 14.904,39.075c10.206,11.279 22.559,16.919 37.061,16.919c12.891,-0 25.513,-4.566 37.866,-13.697Zm0,-127.295l0,-42.7c0,-19.336 -3.894,-34.509 -11.682,-45.52c-8.057,-10.742 -23.633,-16.113 -46.728,-16.113c-35.987,-0 -66.333,13.562 -91.041,40.686l-10.07,-9.668c9.936,-16.919 25.647,-30.884 47.131,-41.895c21.484,-10.473 43.774,-15.71 66.87,-15.71c50.22,-0 75.33,27.392 75.33,82.178l-0,209.472c-12.354,0.537 -22.693,2.149 -31.018,4.834l1.208,-21.35c-13.428,14.234 -29.407,21.35 -47.937,21.35c-21.216,0 -38.94,-8.325 -53.174,-24.975c-14.502,-16.651 -21.753,-35.45 -21.753,-56.397c0,-24.17 8.863,-44.848 26.587,-62.036c17.188,-17.187 40.149,-25.781 68.885,-25.781c9.13,-0 18.261,1.208 27.392,3.625Z" style="fill:#96b490;fill-rule:nonzero;"/><path d="M3873.91,2160.31l-9.668,-0c8.057,-15.576 15.845,-25.378 23.364,-29.407c7.789,-4.028 20.411,-6.042 37.867,-6.042l62.841,-0c24.439,-0 41.626,-2.82 51.563,-8.46c10.205,-5.639 18.665,-16.247 25.378,-31.823l12.488,-0c-10.473,46.728 -36.255,70.092 -77.344,70.092l-93.859,0c-15.577,0 -26.453,1.88 -32.63,5.64Zm163.953,-97.083l10.071,0c-8.594,15.577 -16.516,25.245 -23.767,29.004c-7.52,4.297 -20.008,6.446 -37.464,6.446l-63.244,-0c-24.17,-0 -41.224,2.685 -51.16,8.056c-10.205,5.64 -18.665,16.248 -25.379,31.824l-12.487,0c10.205,-46.46 35.986,-69.69 77.343,-69.69l93.86,0c15.308,0 26.05,-1.88 32.227,-5.64Z" style="fill:#96b490;fill-rule:nonzero;"/><path d="M4149.05,2327.89l0,-362.146l29.407,0l0,356.909c0,47.266 -2.685,80.969 -8.056,101.111c-6.446,24.439 -19.336,44.849 -38.672,61.231c-19.605,17.187 -41.089,27.124 -64.453,29.809l-0,-10.876c17.456,-5.909 33.435,-16.919 47.937,-33.033c13.964,-15.844 23.095,-33.837 27.392,-53.979c4.297,-19.605 6.445,-49.28 6.445,-89.026Zm58.008,-7.251l0,-354.895l29.407,0l0,352.478c0,40.552 -3.357,69.556 -10.071,87.012c-6.982,17.993 -20.678,35.18 -41.089,51.562c9.4,-16.65 15.039,-31.823 16.919,-45.52c1.612,-10.473 3.223,-40.686 4.834,-90.637Zm-54.785,-488.635l53.577,50.354l-18.933,19.336l-53.577,-50.354l18.933,-19.336Zm37.866,-38.672l53.577,50.354l-18.933,19.739l-53.577,-50.757l18.933,-19.336Z" style="fill:#96b490;fill-rule:nonzero;"/><path d="M4382.29,2220.73l-1.611,2.417c-40.552,-23.365 -60.828,-60.022 -60.828,-109.973c0,-19.336 3.626,-38.001 10.877,-55.994c7.251,-17.993 22.424,-36.121 45.52,-54.382l2.014,2.014c-16.919,29.272 -25.379,64.453 -25.379,105.542c0,42.7 9.803,79.492 29.407,110.376Zm281.58,-129.309l-35.852,-0c-1.343,-48.877 -14.099,-84.729 -38.269,-107.556c43.237,17.993 67.944,53.845 74.121,107.556Zm-246.131,-29.81l143.409,0c-1.343,-19.336 -7.654,-36.523 -18.933,-51.562c-11.817,-15.039 -28.736,-22.559 -50.757,-22.559c-19.605,-0 -36.121,6.848 -49.549,20.544c-13.427,13.697 -21.484,31.556 -24.17,53.577Zm183.692,29.81l-186.914,-0c-0.537,13.427 -0.806,21.618 -0.806,24.572c0,34.913 9.534,62.976 28.601,84.192c19.068,20.948 43.909,31.421 74.524,31.421c25.244,0 48.071,-6.848 68.482,-20.544c20.41,-13.697 36.523,-32.093 48.339,-55.188l17.322,-0c-24.707,70.63 -71.704,105.945 -140.991,105.945c-41.626,-0 -73.718,-14.502 -96.277,-43.506c-22.558,-28.736 -33.838,-65.125 -33.838,-109.168c0,-42.431 10.474,-77.746 31.421,-105.945c20.679,-27.929 47.669,-41.894 80.969,-41.894c26.856,-0 50.489,10.071 70.899,30.212c20.141,19.873 32.898,53.174 38.269,99.903Z" style="fill:#96b490;fill-rule:nonzero;"/></g><path d="M1778.55,2252.96l-203.43,-424.585l39.478,0c5.371,13.965 12.89,31.556 22.558,52.771c10.742,22.827 16.785,36.389 18.128,40.686c1.343,2.417 2.551,5.237 3.625,8.46l94.666,196.179c33.032,68.213 68.213,109.57 105.542,124.072l-0,7.251c-36.524,-3.222 -63.379,-4.834 -80.567,-4.834Zm-287.622,-202.624l121.656,-0l-58.411,-122.461l-63.245,122.461Zm172.01,105.139l-35.853,-74.927l-151.867,0l-38.269,74.927c-0,-0 -0.672,1.746 -2.014,5.237c-0.269,0.268 -2.283,4.162 -6.043,11.682c-5.64,11.279 -8.459,22.827 -8.459,34.643c-0,20.411 11.279,34.913 33.838,43.506l-0,7.251c-4.566,0 -12.488,-0.671 -23.768,-2.014c-15.844,-1.88 -30.078,-2.82 -42.7,-2.82c-11.548,0 -25.781,0.94 -42.7,2.82c-11.548,1.343 -19.202,2.014 -22.961,2.014l-0,-7.251c29.541,-15.039 56.396,-46.057 80.566,-93.054l133.74,-260.229c-10.205,-20.679 -24.237,-36.658 -42.096,-47.937c-17.859,-11.28 -38.739,-17.456 -62.64,-18.531l-0,-7.251l14.099,0c12.622,0 29.944,0.806 51.965,2.417c23.096,1.612 38.135,2.417 45.118,2.417l203.43,424.585c-26.05,0.537 -57.337,2.149 -93.86,4.834l-0,-7.251c20.41,-3.491 30.615,-14.502 30.615,-33.032c0,-13.696 -6.714,-34.375 -20.141,-62.036Z" style="fill:#96b490;fill-rule:nonzero;"/></g></svg>