<?xml version="1.0" encoding="UTF-8" standalone="no"?><!DOCTYPE svg PUBLIC "-//W3C//DTD SVG 1.1//EN" "http://www.w3.org/Graphics/SVG/1.1/DTD/svg11.dtd"><svg width="100%" height="100%" viewBox="0 0 1287 720" version="1.1" xmlns="http://www.w3.org/2000/svg" xmlns:xlink="http://www.w3.org/1999/xlink" xml:space="preserve" xmlns:serif="http://www.serif.com/" style="fill-rule:evenodd;clip-rule:evenodd;stroke-linejoin:round;stroke-miterlimit:2;"><path d="M1284.36,195.455l-0,336.363c-0,92.822 -75.36,168.182 -168.182,168.182l-943.94,0c-92.822,0 -168.181,-75.36 -168.181,-168.182l-0,-336.363c-0,-92.823 75.359,-168.182 168.181,-168.182l943.94,-0c92.822,-0 168.182,75.359 168.182,168.182Z"/><path id="Tronc" d="M349.524,203.779c-8.574,2.37 -12.519,7.825 -13.645,15.16c145.244,122.069 232.034,242.579 225.757,360.606c11.488,11.574 29.67,15.95 61.364,11.364c15.1,-109.743 -93.374,-245.994 -273.476,-387.13Z" style="fill:#986052;"/><g id="Feuille-BG" serif:id="Feuille BG"><path d="M285.64,431.067c71.227,75.849 158.883,91.272 261.356,52.201" style="fill:#78b251;"/><path d="M546.996,483.268c-33.781,-34.113 -72.593,-60.485 -120.144,-73.413c-58.621,-8.587 -106.422,-2.506 -141.212,21.212c43.855,2.2 92.585,4.86 140.147,15.004l121.209,37.197Z" style="fill:#5b903e;"/></g><g id="Feuille-MG" serif:id="Feuille MG"><path d="M195.741,298.885c70.895,79.892 159.97,97.163 268.101,48.796" style="fill:#77b256;"/><path d="M463.842,347.681c-33.419,-35.389 -73.021,-63.169 -127.963,-72.069c-57.088,-8.67 -102.91,0.499 -140.138,23.273c45.941,0.545 92.541,5.041 140.138,15.515c45.717,7.521 87.225,19.952 127.963,33.281Z" style="fill:#5b913c;"/></g><g id="Feuille-HG" serif:id="Feuille HG"><path d="M135.028,98.77c-10.688,70.302 69.551,125.068 207.443,110.471" style="fill:#a3d389;"/><path d="M342.471,209.241c10.71,-29.613 -1.346,-60.279 -64.1,-93.287c-46.832,-23.098 -94.841,-24.645 -143.343,-17.184c42.748,14.027 82.024,31.584 116.427,54.096c33.925,16.969 63.767,36.012 91.016,56.375Z" style="fill:#71b257;"/></g><g id="Feuille-BD" serif:id="Feuille BD"><path d="M563.929,406.156c10.685,22.7 49.796,29.813 110.816,24.911c47.204,-16.88 59.962,-41.066 53.581,-69.311c-25.138,8.718 -44.966,24.945 -80.372,36.484c-37.06,12.078 -64.827,5.581 -84.025,7.916Z" style="fill:#a4cd84;"/><path d="M563.929,406.156c10.601,-56.588 64.494,-72.244 164.397,-44.4" style="fill:#7ab455;"/></g><g id="Feuille-HG1" serif:id="Feuille HG"><path d="M480.137,316.09c153.934,13.826 217.031,-70.655 144.259,-133.954" style="fill:#a4d28d;"/><path d="M480.137,316.09c-22.003,-31.113 -34.894,-61.845 -17.891,-91.332c40.934,-44.812 96.86,-54.641 162.15,-42.622l-92.738,60.888c-26.621,22.781 -44.384,47.038 -51.521,73.066Z" style="fill:#76b151;"/></g><g id="Nom"><g><path d="M719.173,557.28c4.19,-6.639 6.285,-13.955 6.285,-21.947c-0,-7.283 -2.417,-14.598 -7.251,-21.946c11.086,4.705 16.629,12.117 16.629,22.236c-0,10.248 -5.221,17.467 -15.663,21.657Zm-58.877,-47.47l-0,101.9l-4.158,0c-1.611,0 -4.157,0.194 -7.637,0.58c-2.965,0.387 -6.446,0.58 -10.442,0.58l0,-1.74c4.125,-0.451 7.541,-2.481 10.248,-6.091c2.707,-3.609 4.061,-10.57 4.061,-20.882l-0,-49.694c-0,-14.051 -4.77,-22.075 -14.309,-24.073l0,-1.74c4.125,0.451 11.537,0.838 22.237,1.16Zm15.082,26.587l-0,20.979c3.802,0.967 7.927,1.45 12.375,1.45c14.502,0 21.753,-7.541 21.753,-22.623c-0,-14.115 -7.187,-21.172 -21.56,-21.172c-4.641,-0 -8.25,0.934 -10.828,2.803c-1.16,2.578 -1.74,8.766 -1.74,18.563Zm-5.221,75.313l-2.804,0l0,-101.9c3.867,-0 7.992,-0.161 12.375,-0.484c5.028,-0.451 9.12,-0.676 12.279,-0.676c8.83,-0 15.404,2.707 19.722,8.121c4.319,5.349 6.478,11.956 6.478,19.819c-0,13.342 -5.64,21.882 -16.919,25.62c5.607,0.774 10.312,2.449 14.115,5.028c4.061,2.771 10.216,8.314 18.466,16.628c12.568,12.762 22.816,19.143 30.744,19.143c1.611,0 3.255,-0.548 4.931,-1.643l0.386,1.74c-2.578,3.351 -6.155,5.027 -10.731,5.027c-4.899,0 -10.023,-1.837 -15.372,-5.511c-5.028,-3.48 -12.536,-10.312 -22.527,-20.496c-11.988,-12.375 -23.654,-18.562 -34.998,-18.562c7.026,2.191 16.533,9.571 28.521,22.139c8.443,8.766 15.211,15.147 20.303,19.143c5.156,3.996 10.087,5.994 14.792,5.994l-0,0.87c-2.192,0.774 -4.351,1.16 -6.478,1.16c-6.252,0 -11.666,-1.579 -16.242,-4.737c-2.449,-1.74 -5.559,-4.399 -9.33,-7.976c-3.77,-3.577 -8.298,-8.202 -13.583,-13.874c-7.735,-8.25 -13.471,-13.857 -17.209,-16.822c-3.996,-3.029 -7.896,-5.156 -11.698,-6.381l-0,22.913c-0,15.405 4.64,23.784 13.921,25.137l0,1.74c-7.734,-0.773 -14.115,-1.16 -19.142,-1.16Z" style="fill:#96b490;fill-rule:nonzero;"/><path d="M786.463,547.612c-5.995,6.638 -8.992,16.435 -8.992,29.39c0,12.955 2.997,22.881 8.992,29.778c-11.151,-6.317 -16.726,-16.372 -16.726,-30.164c-0,-13.6 5.575,-23.268 16.726,-29.004Zm53.173,58.104c5.93,-6.639 8.895,-15.855 8.895,-27.65c-0,-6.381 -0.709,-12.375 -2.127,-17.983c-1.482,-5.736 -3.738,-9.926 -6.768,-12.568c11.28,6.252 16.919,15.855 16.919,28.81c0,12.44 -5.639,22.237 -16.919,29.391Zm-47.469,-29.294c-0,11.795 1.804,19.787 5.414,23.977c3.609,4.189 8.733,6.284 15.372,6.284c6.252,-0 11.311,-2.192 15.179,-6.574c3.802,-4.383 5.704,-12.375 5.704,-23.977c-0,-19.529 -6.961,-29.294 -20.883,-29.294c-13.858,0 -20.786,9.861 -20.786,29.584Zm-8.121,1.547c-0,-12.504 2.545,-21.817 7.637,-27.94c5.157,-6.188 12.246,-9.282 21.27,-9.282c8.379,0 15.307,2.74 20.786,8.218c5.478,5.479 8.218,14.534 8.218,27.167c-0,13.858 -2.933,23.525 -8.798,29.004c-5.93,5.543 -12.762,8.314 -20.496,8.314c-7.928,0 -14.663,-2.9 -20.206,-8.701c-5.608,-5.736 -8.411,-14.663 -8.411,-26.78Z" style="fill:#96b490;fill-rule:nonzero;"/><path d="M870.961,585.993l1.45,0c1.933,5.995 5.124,10.99 9.571,14.986c4.512,3.996 9.346,5.994 14.502,5.994c4.061,-0 7.573,-1.031 10.538,-3.094c2.836,-2.062 4.254,-4.479 4.254,-7.251c0,-2.965 -1.45,-5.349 -4.351,-7.154c-2.964,-1.805 -8.378,-3.513 -16.242,-5.124c-7.734,-1.676 -13.503,-4.141 -17.305,-7.396c-3.803,-3.255 -5.705,-7.332 -5.705,-12.23c0,-3.803 1.257,-7.38 3.771,-10.732c-0.258,1.612 -0.387,3.094 -0.387,4.448c0,3.222 0.967,6.252 2.901,9.088c1.804,2.707 4.35,4.769 7.637,6.187c3.223,1.418 8.637,3.062 16.243,4.931c7.218,1.74 12.471,3.867 15.758,6.381c3.223,2.513 4.834,6.155 4.834,10.924c0,5.028 -2.03,9.153 -6.09,12.375c-3.997,3.159 -9.83,4.738 -17.5,4.738c-6.767,-0 -14.566,-1.644 -23.396,-4.931c0,-4.898 -0.129,-8.379 -0.387,-10.441c-0.193,-1.934 -0.29,-3.996 -0.29,-6.188c0,-1.224 0.065,-3.061 0.194,-5.511Zm55.204,-20.979l-1.354,-0c-2.256,-5.93 -5.865,-10.409 -10.828,-13.439c-4.898,-2.964 -9.861,-4.447 -14.889,-4.447c-3.931,0 -7.412,0.774 -10.441,2.321c-2.965,1.611 -4.447,3.899 -4.447,6.864c-0,2.256 1.095,3.996 3.287,5.22c2.062,1.161 6.123,2.385 12.181,3.674c12.504,2.643 20.593,6.027 24.267,10.152c3.674,4.125 5.511,8.475 5.511,13.051c-0,3.932 -1.805,8.347 -5.414,13.246c0.515,-2.385 0.773,-4.415 0.773,-6.091c0,-4.963 -1.676,-9.507 -5.027,-13.632c-3.287,-4.061 -10.989,-7.509 -23.107,-10.345c-7.154,-1.676 -12.117,-3.545 -14.888,-5.607c-2.836,-2.127 -4.254,-5.253 -4.254,-9.378c-0,-4.641 2.095,-8.379 6.284,-11.215c4.125,-2.772 10.216,-4.157 18.272,-4.157c7.67,-0 15.534,1.579 23.59,4.737c-0.129,1.547 -0.193,2.417 -0.193,2.61c-0,2.385 0.129,4.899 0.387,7.541c0.193,2.321 0.29,5.286 0.29,8.895Z" style="fill:#96b490;fill-rule:nonzero;"/><path d="M953.912,576.422c-4.061,5.092 -6.091,10.667 -6.091,16.726c-0,7.154 2.514,13.019 7.541,17.595c-3.932,-0.902 -7.412,-2.868 -10.441,-5.897c-3.159,-2.965 -4.738,-6.832 -4.738,-11.602c0,-8.314 4.576,-13.921 13.729,-16.822Zm62.165,36.448l-18.563,-1.16l0,-50.177c0,-5.091 -0.483,-8.83 -1.45,-11.214c-1.096,-2.45 -2.997,-4.544 -5.704,-6.285c5.607,1.096 9.41,3.094 11.408,5.995c1.998,2.964 2.997,8.282 2.997,15.952l0,29.874c0,5.092 0.709,8.733 2.127,10.925c1.354,2.191 4.415,3.641 9.185,4.35l-0,1.74Zm-32.098,-9.184l0,-25.234c-2.127,-0.257 -3.931,-0.386 -5.414,-0.386c-5.092,-0 -9.056,1.547 -11.892,4.64c-2.835,3.159 -4.253,6.768 -4.253,10.828c-0,3.674 1.192,6.8 3.577,9.378c2.449,2.707 5.414,4.061 8.894,4.061c3.094,-0 6.123,-1.096 9.088,-3.287Zm0,-30.551l0,-10.248c0,-4.641 -0.934,-8.282 -2.804,-10.925c-1.933,-2.578 -5.671,-3.867 -11.214,-3.867c-8.637,-0 -15.92,3.255 -21.85,9.765l-2.417,-2.321c2.385,-4.06 6.155,-7.412 11.312,-10.054c5.156,-2.514 10.505,-3.771 16.048,-3.771c12.053,0 18.079,6.574 18.079,19.723l0,50.273c-2.964,0.129 -5.446,0.516 -7.444,1.16l0.29,-5.124c-3.222,3.416 -7.057,5.124 -11.505,5.124c-5.092,0 -9.345,-1.998 -12.761,-5.994c-3.481,-3.996 -5.221,-8.508 -5.221,-13.535c-0,-5.801 2.127,-10.764 6.381,-14.889c4.125,-4.125 9.635,-6.187 16.532,-6.187c2.191,-0 4.383,0.29 6.574,0.87Z" style="fill:#96b490;fill-rule:nonzero;"/><path d="M1031.74,589.474l-2.32,-0c1.933,-3.738 3.802,-6.091 5.607,-7.058c1.869,-0.967 4.898,-1.45 9.088,-1.45l15.082,0c5.865,0 9.99,-0.677 12.375,-2.03c2.449,-1.354 4.479,-3.9 6.091,-7.638l2.997,0c-2.514,11.215 -8.701,16.822 -18.563,16.822l-22.526,0c-3.738,0 -6.349,0.452 -7.831,1.354Zm39.349,-23.3l2.417,0c-2.063,3.738 -3.964,6.059 -5.705,6.961c-1.804,1.031 -4.801,1.547 -8.991,1.547l-15.178,-0c-5.801,-0 -9.894,0.644 -12.279,1.934c-2.449,1.353 -4.479,3.899 -6.091,7.637l-2.997,0c2.45,-11.15 8.637,-16.725 18.563,-16.725l22.526,-0c3.674,-0 6.252,-0.452 7.735,-1.354Z" style="fill:#96b490;fill-rule:nonzero;"/><path d="M1097.77,629.693l0,-86.915l7.058,-0l-0,85.658c-0,11.344 -0.645,19.432 -1.934,24.266c-1.547,5.866 -4.64,10.764 -9.281,14.696c-4.705,4.125 -9.861,6.509 -15.469,7.154l0,-2.61c4.19,-1.418 8.025,-4.061 11.505,-7.928c3.352,-3.803 5.543,-8.121 6.574,-12.955c1.032,-4.705 1.547,-11.827 1.547,-21.366Zm13.922,-1.741l0,-85.174l7.058,-0l-0,84.594c-0,9.733 -0.806,16.694 -2.417,20.883c-1.676,4.319 -4.963,8.444 -9.862,12.375c2.256,-3.996 3.61,-7.638 4.061,-10.925c0.387,-2.513 0.773,-9.764 1.16,-21.753Zm-13.148,-117.272l12.858,12.085l-4.544,4.641l-12.858,-12.085l4.544,-4.641Zm9.087,-9.281l12.859,12.085l-4.544,4.737l-12.858,-12.182l4.543,-4.64Z" style="fill:#96b490;fill-rule:nonzero;"/><path d="M1153.75,603.976l-0.387,0.58c-9.732,-5.607 -14.599,-14.405 -14.599,-26.394c0,-4.64 0.87,-9.12 2.611,-13.438c1.74,-4.318 5.382,-8.669 10.924,-13.052l0.484,0.484c-4.061,7.025 -6.091,15.468 -6.091,25.33c0,10.248 2.353,19.078 7.058,26.49Zm67.579,-31.034l-8.605,-0c-0.322,-11.731 -3.383,-20.335 -9.184,-25.814c10.377,4.319 16.306,12.923 17.789,25.814Zm-59.071,-7.155l34.417,0c-0.322,-4.64 -1.836,-8.765 -4.543,-12.375c-2.836,-3.609 -6.897,-5.414 -12.182,-5.414c-4.705,0 -8.669,1.644 -11.892,4.931c-3.222,3.287 -5.156,7.573 -5.8,12.858Zm44.085,7.155l-44.859,-0c-0.129,3.222 -0.193,5.188 -0.193,5.897c-0,8.379 2.288,15.114 6.864,20.206c4.576,5.028 10.538,7.541 17.886,7.541c6.058,0 11.537,-1.643 16.435,-4.93c4.899,-3.288 8.766,-7.703 11.602,-13.246l4.157,0c-5.93,16.952 -17.209,25.427 -33.838,25.427c-9.99,0 -17.692,-3.48 -23.106,-10.441c-5.414,-6.897 -8.121,-15.63 -8.121,-26.2c-0,-10.184 2.513,-18.66 7.541,-25.427c4.963,-6.703 11.44,-10.055 19.432,-10.055c6.446,0 12.117,2.417 17.016,7.251c4.834,4.77 7.895,12.762 9.184,23.977Z" style="fill:#96b490;fill-rule:nonzero;"/></g><path d="M528.853,611.71l-48.823,-101.9l9.474,-0c1.289,3.351 3.094,7.573 5.414,12.665c2.579,5.478 4.029,8.733 4.351,9.765c0.322,0.58 0.612,1.256 0.87,2.03l22.72,47.083c7.928,16.371 16.371,26.297 25.33,29.777l-0,1.74c-8.766,-0.773 -15.211,-1.16 -19.336,-1.16Zm-69.029,-48.63l29.197,0l-14.019,-29.39l-15.178,29.39Zm41.282,25.234l-8.605,-17.983l-36.448,0l-9.184,17.983c-0,-0 -0.161,0.419 -0.484,1.257c-0.064,0.064 -0.548,0.999 -1.45,2.803c-1.353,2.707 -2.03,5.479 -2.03,8.315c-0,4.898 2.707,8.379 8.121,10.441l-0,1.74c-1.096,0 -2.997,-0.161 -5.704,-0.483c-3.803,-0.451 -7.219,-0.677 -10.248,-0.677c-2.772,0 -6.188,0.226 -10.248,0.677c-2.772,0.322 -4.609,0.483 -5.511,0.483l-0,-1.74c7.09,-3.609 13.535,-11.054 19.336,-22.333l32.098,-62.455c-2.45,-4.963 -5.817,-8.798 -10.103,-11.505c-4.287,-2.707 -9.298,-4.189 -15.034,-4.447l-0,-1.74l3.384,-0c3.029,-0 7.186,0.193 12.471,0.58c5.543,0.386 9.153,0.58 10.828,0.58l48.824,101.9c-6.252,0.129 -13.761,0.516 -22.527,1.16l0,-1.74c4.899,-0.838 7.348,-3.48 7.348,-7.928c-0,-3.287 -1.611,-8.25 -4.834,-14.888Z" style="fill:#96b490;fill-rule:nonzero;"/></g></svg>