<?xml version="1.0" encoding="UTF-8" standalone="no"?><!DOCTYPE svg PUBLIC "-//W3C//DTD SVG 1.1//EN" "http://www.w3.org/Graphics/SVG/1.1/DTD/svg11.dtd"><svg width="100%" height="100%" viewBox="0 0 176 175" version="1.1" xmlns="http://www.w3.org/2000/svg" xmlns:xlink="http://www.w3.org/1999/xlink" xml:space="preserve" xmlns:serif="http://www.serif.com/" style="fill-rule:evenodd;clip-rule:evenodd;stroke-linejoin:round;stroke-miterlimit:2;"><g><path d="M88,174.443c-48.025,0 -86.957,-38.951 -86.957,-87c0,-48.049 38.932,-87 86.957,-87c48.025,0 86.957,38.951 86.957,87c0,48.049 -38.932,87 -86.957,87" style="fill:#84a8c5;fill-rule:nonzero;"/><g><clipPath id="_clip1"><path d="M1.043,87.443c0,48.049 38.932,87 86.957,87c48.025,0 86.957,-38.951 86.957,-87c-0,-48.049 -38.932,-87 -86.957,-87c-48.025,0 -86.957,38.951 -86.957,87Z" clip-rule="nonzero"/></clipPath><g clip-path="url(#_clip1)"><path d="M54.734,65.809c2.406,-0.792 5.469,1.939 6.839,6.101c1.371,4.162 0.531,8.18 -1.877,8.972c-2.405,0.792 -5.469,-1.938 -6.838,-6.101c-1.372,-4.162 -0.531,-8.179 1.876,-8.972" style="fill:#f5be92;"/><path d="M125.1,65.81c-2.408,-0.793 -5.471,1.938 -6.84,6.1c-1.371,4.162 -0.531,8.18 1.875,8.972c2.408,0.792 5.471,-1.939 6.842,-6.101c1.371,-4.162 0.529,-8.179 -1.877,-8.971" style="fill:#f5be92;"/><path d="M112.813,32.932c6.731,1.074 10.456,5.689 12.051,11.954c4.149,16.307 -4.538,51.673 -34.611,52.094c-15.504,0.218 -26.676,-3.725 -30.744,-16.277c-4.07,-12.551 -5.739,-32.777 3.104,-44.113c11.13,-14.262 34.487,-14.395 50.2,-3.658" style="fill:#f5704d;"/><path d="M77.248,116.066c-28.144,12.338 -36.585,18.914 -39.923,21.868c-5.142,4.551 -8.162,22.107 -11.195,36.509l127.345,0c-3.033,-14.402 -5.703,-31.958 -10.846,-36.509c-3.336,-2.954 -11.47,-9.362 -39.613,-21.7l-25.768,-0.168Z" style="fill:#fff;"/><path d="M58.047,174.443l64.039,0c-0.134,-15.446 0.133,-32.802 12.746,-42.297c-4.617,-2.887 -11.552,-6.706 -22.14,-11.648c4.325,12.924 -11.327,20.802 -23.625,20.783c-12.298,0.019 -25.95,-7.859 -21.625,-20.783c-10.588,4.942 -17.524,8.761 -22.141,11.648c12.613,9.495 12.881,26.851 12.746,42.297Z" style="fill:#5f5659;"/><path d="M76.313,91.472l-0,33.366c7.514,8.884 19.812,9.203 27.328,0l-0,-33.366c-0,-16.845 -27.328,-16.845 -27.328,0" style="fill:#f5be92;"/><path d="M89.977,35.465c-45.863,-0 -29.369,59.754 -26.374,64.166c3.304,4.864 18.964,13.421 26.374,13.421c7.41,-0 23.07,-9.64 26.375,-14.505c2.994,-4.412 19.488,-63.082 -26.375,-63.082" style="fill:#f5be92;"/><path d="M87.579,48.966c-0.237,-1.727 0.001,-3.295 0.497,-3.989c0.458,-0.718 0.916,-0.89 0.891,-0.918l-4.6,-3.45c0,-0 -0.165,0.319 -0.416,0.878c-0.131,0.256 -0.237,0.593 -0.339,0.976l-3.426,-0.722c-0.043,0.001 0.086,0.76 -0.373,2.025c-0.4,1.289 -1.849,3.051 -3.354,5.091c-0.735,1.015 -1.439,2.129 -1.883,3.27c-0.257,0.548 -0.387,1.132 -0.536,1.655c-0.125,0.534 -0.163,1.054 -0.234,1.512c-0.024,0.942 -0.014,1.696 0.087,2.223c0.068,0.52 0.107,0.817 0.107,0.817c0,-0 0.051,-0.295 0.14,-0.811c0.056,-0.514 0.272,-1.226 0.543,-2.036c0.622,-1.636 1.998,-3.327 3.85,-4.639c1.651,-1.241 3.649,-2.494 5.05,-4.107c0.278,1.125 0.739,2.221 1.282,3.172c1.014,1.785 2.248,3.269 3.196,4.341c0.95,1.069 1.606,1.746 1.606,1.746c0,-0 -0.359,-0.879 -0.832,-2.203c-0.474,-1.318 -1.032,-3.11 -1.256,-4.831" style="fill:#f5704d;"/><path d="M123.702,62.613c0.141,-0.273 0.273,-0.532 0.397,-0.775c0.249,-0.484 0.464,-0.905 0.642,-1.252c0.352,-0.691 0.553,-1.085 0.553,-1.085l-5.254,-2.335c0,0 -0.144,0.488 -0.395,1.343c-0.124,0.426 -0.274,0.942 -0.446,1.535c-0.086,0.295 -0.176,0.609 -0.271,0.94c-0.069,0.335 -0.141,0.687 -0.216,1.054c-0.692,2.925 -1.155,6.823 -1.426,10.672c-0.206,3.855 -0.259,7.671 -0.263,10.529c-0.013,2.856 -0.023,4.761 -0.023,4.761c0,0 0.367,-1.869 0.918,-4.672c0.469,-2.436 1.109,-5.568 1.861,-8.74c0.232,1.478 0.529,2.866 0.898,3.946c0.198,0.774 0.547,1.376 0.704,1.804c0.181,0.421 0.286,0.662 0.286,0.662c0,0 -0.018,-0.264 -0.047,-0.725c-0.003,-0.464 -0.128,-1.092 -0.055,-1.872c0.024,-1.544 0.366,-3.555 0.827,-5.541c0.492,-2.004 1.057,-4.01 1.427,-5.619c0.204,-0.779 0.308,-1.499 0.41,-1.977c0.093,-0.487 0.146,-0.766 0.146,-0.766l-1.464,0c0.141,-0.345 0.281,-0.674 0.422,-0.987c0.129,-0.314 0.252,-0.614 0.369,-0.9" style="fill:#f5704d;"/><path d="M121.313,52.996c0.194,-0.503 0.343,-0.989 0.453,-1.436c0.122,-0.439 0.222,-0.829 0.268,-1.168c0.111,-0.674 0.174,-1.059 0.174,-1.059l-5.75,0l0.086,0.677c0.041,0.215 0.049,0.49 0.054,0.812c0.019,0.319 0.019,0.688 -0.018,1.105c-0.067,1.652 -0.621,4.035 -1.302,6.498c-0.672,2.464 -1.334,5.039 -1.434,7.013c-0.034,0.491 -0.056,0.937 -0.03,1.337c0.013,0.397 0.014,0.738 0.065,1.019c0.078,0.555 0.121,0.872 0.121,0.872c0.001,0 0.046,-0.314 0.126,-0.865c0.027,-0.272 0.121,-0.598 0.215,-0.966c0.08,-0.37 0.222,-0.777 0.382,-1.214c0.612,-1.762 1.871,-3.893 3.197,-6.064c1.332,-2.168 2.672,-4.495 3.392,-6.561" style="fill:#f5704d;"/><path d="M67.012,69.394c-0.1,-0.197 -0.207,-0.407 -0.319,-0.628c-0.087,-0.235 -0.179,-0.482 -0.274,-0.74c-0.189,-0.51 -0.393,-1.063 -0.609,-1.648c-0.228,-0.573 -0.353,-1.235 -0.543,-1.881c-0.391,-1.29 -0.628,-2.731 -0.91,-4.136c-0.456,-2.862 -0.763,-5.722 -0.921,-7.921c-0.17,-2.202 -0.283,-3.67 -0.283,-3.67l-5.639,1.128c-0,-0 0.469,1.411 1.171,3.528c0.336,1.03 0.755,2.234 1.231,3.516l-3.735,0.747c-0,-0 0.506,1.846 1.264,4.614c0.816,2.757 1.631,6.539 2.541,10.304c1.674,7.593 3.348,15.185 3.348,15.185c-0,-0 -0.248,-7.776 -0.496,-15.553c-0.175,-3.356 -0.28,-6.718 -0.496,-9.469c0.392,0.836 0.791,1.657 1.241,2.415c0.359,0.614 0.641,1.229 1.022,1.764c0.365,0.536 0.709,1.043 1.027,1.511c0.158,0.231 0.309,0.453 0.453,0.663c0.169,0.195 0.328,0.38 0.479,0.554c0.298,0.344 0.557,0.644 0.771,0.891c0.423,0.488 0.665,0.766 0.665,0.766c-0,-0 -0.168,-0.331 -0.464,-0.909c-0.145,-0.285 -0.321,-0.633 -0.524,-1.031" style="fill:#f5704d;"/><path d="M121.519,75.45c-1.14,-15.35 -8.42,-30.26 -31.539,-30.26c-23.161,0 -30.419,15.24 -31.54,30.89c-1.22,-18.35 3.539,-40.62 31.54,-40.62c28.039,0 32.769,21.93 31.539,39.99" style="fill:#fff;"/><path d="M126,37.334c0,-0 -0.708,-0.754 -1.949,-1.7c-1.239,-0.946 -2.978,-2.113 -4.949,-2.967c-0.984,-0.428 -2.035,-0.767 -3.109,-0.923c-1.069,-0.152 -2.204,-0.085 -3.163,0.328c-0.256,0.104 -0.486,0.229 -0.699,0.364c-0.073,-0.968 -0.171,-2.019 -0.332,-3.081c-0.325,-1.878 -1.004,-3.671 -1.748,-4.854c-0.341,-0.605 -0.768,-1.019 -0.995,-1.344c-0.247,-0.311 -0.389,-0.49 -0.389,-0.49c-0,-0 0.104,0.204 0.287,0.56c0.16,0.366 0.486,0.833 0.693,1.473c0.479,1.261 0.76,3.008 0.718,4.759c-0.084,1.764 -0.34,3.528 -0.525,4.898c-0.167,1.386 -0.277,2.31 -0.277,2.31l2.874,-0c-0,-0 -0.041,-0.528 -0.107,-1.376l0.654,0.286c0.043,0.031 0.099,-0.767 0.929,-1.334c0.417,-0.297 1.113,-0.507 1.961,-0.538c0.846,-0.028 1.813,0.093 2.771,0.325c1.924,0.455 3.809,1.279 5.165,1.982c1.362,0.703 2.19,1.322 2.19,1.322" style="fill:#f5704d;"/><path d="M130.951,67.258c-0.112,-0.118 -0.237,-0.248 -0.373,-0.389c-0.116,-0.158 -0.241,-0.33 -0.376,-0.513c-0.273,-0.361 -0.576,-0.767 -0.828,-1.265c-0.584,-0.939 -1.027,-2.164 -1.453,-3.469c-0.386,-1.33 -0.705,-2.775 -1,-4.243c-0.301,-1.471 -0.603,-2.958 -0.996,-4.362c-0.418,-1.396 -0.881,-2.721 -1.494,-3.792c-0.148,-0.269 -0.281,-0.533 -0.426,-0.774c-0.163,-0.233 -0.319,-0.454 -0.464,-0.662c-0.283,-0.424 -0.555,-0.777 -0.819,-1.037c-0.507,-0.542 -0.796,-0.852 -0.796,-0.852l-1.852,2.199c0,0 0.249,0.212 0.685,0.582c0.233,0.171 0.477,0.423 0.74,0.733c0.138,0.151 0.283,0.311 0.437,0.481c0.142,0.181 0.276,0.387 0.425,0.594c0.615,0.817 1.165,1.932 1.706,3.171c0.521,1.254 0.99,2.665 1.464,4.089c0.472,1.429 0.976,2.869 1.535,4.186c0.605,1.302 1.213,2.503 1.932,3.403c0.318,0.476 0.681,0.857 1.002,1.19c0.157,0.168 0.305,0.325 0.441,0.471c0.155,0.126 0.296,0.243 0.424,0.348c0.511,0.415 0.802,0.653 0.802,0.653c0,0 -0.261,-0.27 -0.716,-0.742" style="fill:#f5704d;"/><path d="M57.572,46.867c-0.01,0.343 0.074,0.832 -0.045,1.453c-0.039,0.312 -0.082,0.649 -0.127,1.006c-0.085,0.36 -0.176,0.741 -0.269,1.134c-0.161,0.796 -0.491,1.629 -0.757,2.478c-0.614,1.681 -1.326,3.358 -1.852,4.618c-0.513,1.267 -0.855,2.111 -0.855,2.111c-0,-0 0.5,-0.759 1.25,-1.898c0.763,-1.131 1.79,-2.633 2.755,-4.213c0.447,-0.814 0.954,-1.597 1.305,-2.422c0.187,-0.409 0.368,-0.803 0.539,-1.177c0.136,-0.4 0.264,-0.778 0.383,-1.128c0.273,-0.687 0.326,-1.347 0.419,-1.788c0.076,-0.45 0.12,-0.707 0.12,-0.707l-2.875,-0c-0,-0 0.003,0.194 0.009,0.533" style="fill:#f5704d;"/><path d="M64.539,36.273c-0.408,0.189 -0.956,0.441 -1.614,0.681c-0.656,0.233 -1.419,0.47 -2.122,0.402c-0.804,-0.049 -1.606,-0.361 -2.27,-0.942c-0.66,-0.572 -1.135,-1.394 -1.286,-2.246c-0.162,-0.853 0.022,-1.711 0.379,-2.35c0.721,-1.309 1.756,-1.789 1.708,-1.818c0.042,0.046 -1.044,0.298 -2.086,1.574c-0.511,0.629 -0.918,1.584 -0.909,2.663c-0.002,1.073 0.397,2.23 1.144,3.159c0.731,0.935 1.847,1.621 2.947,1.889c1.207,0.322 2.265,0.149 3.091,0.02c0.836,-0.146 1.503,-0.324 1.941,-0.44c0.42,-0.107 0.66,-0.168 0.66,-0.168l-0.909,-2.728c-0,0 -0.245,0.111 -0.674,0.304" style="fill:#f5704d;"/><path d="M57.018,76.617c-5.044,17.185 4.576,34.764 13.935,48.548c5.366,7.902 10.85,15.83 14.282,24.806c3.151,8.242 3.208,17.074 3.515,25.779c0.022,0.642 1.022,0.645 1,0c-0.282,-8.003 -0.333,-16.113 -2.769,-23.81c-2.749,-8.684 -7.845,-16.453 -12.899,-23.942c-9.869,-14.625 -21.531,-32.609 -16.1,-51.115c0.182,-0.62 -0.783,-0.884 -0.964,-0.266" style="fill:#303030;fill-rule:nonzero;"/><path d="M122.667,74.917c0.479,3.91 0.762,7.808 0.534,11.746c-0.263,4.588 -1.587,8.936 -3.153,13.223c-2.819,7.711 -6.723,14.976 -10.902,22.023c-4.181,7.048 -8.951,13.449 -13.939,19.938c-3.196,4.157 -8.354,9.632 -7.957,15.279c0.045,0.64 1.045,0.644 1,-0c-0.223,-3.162 1.661,-6.103 3.322,-8.649c2.016,-3.088 4.372,-5.975 6.641,-8.876c4.867,-6.227 9.169,-12.66 13.149,-19.489c3.88,-6.656 7.311,-13.562 9.958,-20.803c2.95,-8.069 3.386,-15.913 2.347,-24.392c-0.077,-0.631 -1.078,-0.639 -1,-0" style="fill:#303030;fill-rule:nonzero;"/></g></g></g></svg>