<?xml version="1.0" encoding="UTF-8" standalone="no"?><!DOCTYPE svg PUBLIC "-//W3C//DTD SVG 1.1//EN" "http://www.w3.org/Graphics/SVG/1.1/DTD/svg11.dtd"><svg width="100%" height="100%" viewBox="0 0 176 177" version="1.1" xmlns="http://www.w3.org/2000/svg" xmlns:xlink="http://www.w3.org/1999/xlink" xml:space="preserve" xmlns:serif="http://www.serif.com/" style="fill-rule:evenodd;clip-rule:evenodd;stroke-linejoin:round;stroke-miterlimit:2;"><path d="M87.712,175.131c-48.023,0 -86.956,-38.951 -86.956,-87c-0,-48.048 38.933,-87 86.956,-87c48.025,0 86.957,38.952 86.957,87c-0,48.049 -38.932,87 -86.957,87" style="fill:#f4a57a;fill-rule:nonzero;"/><g><clipPath id="_clip1"><path d="M0.756,88.132c-0,48.049 38.932,87 86.956,87c48.025,-0 86.957,-38.951 86.957,-87c-0,-48.048 -38.932,-87 -86.957,-87c-48.024,-0 -86.956,38.952 -86.956,87Z" clip-rule="nonzero"/></clipPath><g clip-path="url(#_clip1)"><path d="M135.74,142.822c-0.505,-19.082 -5.466,-106.175 -49.252,-107.245c-40.605,1.248 -47.957,88.319 -46.56,108.493c8.529,1.023 27.34,6.526 46.402,6.398c20.13,-0.135 40.538,-5.975 49.41,-7.646" style="fill:#474748;"/><path d="M99.642,122.34c-0.263,0.414 -26.086,0.824 -26.372,1.232c-8.109,11.569 -25.633,16.639 -39.567,19.754c-13.866,3.1 -14.402,20.713 -14.423,32.444l135.176,0c-0.02,-11.731 -0.278,-29.28 -14.424,-32.444c-14.148,-3.164 -32.697,-8.888 -40.39,-20.986" style="fill:#df5e6e;"/><path d="M73.325,97.631l-0,33.182c6.786,13.882 18.969,14.244 27.087,0l-0,-33.182c-0,-17.914 -27.087,-17.914 -27.087,0" style="fill:#ffdec4;"/><path d="M124.297,82.139c-2.837,-1.219 -6.844,1.771 -8.95,6.674c-2.107,4.906 -1.516,9.869 1.321,11.088c2.837,1.218 6.844,-1.77 8.95,-6.674c2.108,-4.906 1.516,-9.869 -1.321,-11.088" style="fill:#ffdec4;"/><path d="M50.662,82.139c2.838,-1.219 6.844,1.771 8.951,6.674c2.106,4.906 1.516,9.869 -1.322,11.088c-2.836,1.218 -6.844,-1.77 -8.949,-6.674c-2.108,-4.906 -1.516,-9.869 1.32,-11.088" style="fill:#ffdec4;"/><path d="M86.869,120.582c-8.818,0 -27.446,-13.861 -33.205,-33.717c-5.815,-20.049 5.136,-48.806 33.205,-48.806c28.067,0 39.021,28.757 33.204,48.806c-5.761,19.856 -24.387,33.717 -33.204,33.717" style="fill:#ffdec4;"/><path d="M84.619,53.141c3.811,17.748 21.897,27.674 37.547,24.283c-0.458,-19.879 -12.159,-40.931 -35.297,-40.931c-24.826,0 -36.481,24.236 -35.214,45.252c15.887,2.189 20.249,-7.145 32.964,-28.604" style="fill:#474748;"/><path d="M61.666,94.952c-0.069,-0.264 -0.142,-0.54 -0.216,-0.825c-0.104,-0.273 -0.212,-0.554 -0.323,-0.844c-0.207,-0.602 -0.52,-1.161 -0.811,-1.783c-0.625,-1.181 -1.368,-2.409 -2.049,-3.565c-0.659,-1.16 -1.302,-2.299 -1.598,-3.282c-0.292,-0.989 -0.392,-1.779 -0.22,-2.335c0.249,-1.096 0.86,-1.736 0.801,-1.744l-6.712,-2.571c0,-0 -0.1,0.488 -0.232,1.327c-0.03,0.208 -0.064,0.439 -0.1,0.69c-0.022,0.258 -0.009,0.557 -0.008,0.862c0.007,0.616 0.017,1.296 0.215,2.028c0.254,1.491 1.072,2.96 1.994,4.186c0.942,1.246 2.049,2.2 3.099,3.141c1.068,0.917 2.076,1.763 2.98,2.613c0.415,0.435 0.872,0.843 1.204,1.277c0.181,0.216 0.355,0.426 0.524,0.628c0.144,0.218 0.283,0.428 0.416,0.631c0.295,0.402 0.472,0.81 0.641,1.177c0.086,0.186 0.167,0.36 0.242,0.52c0.047,0.169 0.091,0.325 0.13,0.465c0.16,0.577 0.251,0.907 0.251,0.907c0,-0 0.02,-0.345 0.055,-0.947c0.008,-0.156 0.017,-0.327 0.027,-0.514c-0.019,-0.184 -0.04,-0.383 -0.063,-0.597c-0.044,-0.431 -0.087,-0.931 -0.247,-1.445" style="fill:#474748;"/><path d="M121.725,77.558c-0.244,-0.771 -0.552,-1.378 -0.8,-1.956c-0.268,-0.527 -0.506,-1.01 -0.706,-1.372c-0.406,-0.716 -0.638,-1.125 -0.638,-1.125l-5.709,4.366c0,0 0.269,0.271 0.74,0.744c0.215,0.232 0.477,0.515 0.777,0.839c0.25,0.319 0.593,0.683 0.845,1.078c0.571,0.797 1.074,1.719 1.287,2.924c0.217,1.206 0.2,2.619 -0.193,4.069c-0.774,2.909 -2.737,5.938 -3.574,8.431c-0.458,1.236 -0.645,2.32 -0.762,3.059c-0.062,0.746 -0.098,1.173 -0.098,1.173c0,0 0.144,-0.398 0.396,-1.094c0.304,-0.674 0.743,-1.616 1.464,-2.628c0.708,-1.021 1.647,-2.112 2.703,-3.314c1.049,-1.207 2.211,-2.561 3.174,-4.212c0.969,-1.643 1.615,-3.607 1.803,-5.564c0.214,-1.973 -0.176,-3.949 -0.709,-5.418" style="fill:#474748;"/><path d="M93.726,66.477c-1.175,-1.533 -2.207,-3.138 -2.962,-4.656c-0.735,-1.52 -1.207,-2.954 -1.29,-4.04c-0.105,-1.096 0.086,-1.797 0.263,-2.209c0.167,-0.419 0.345,-0.595 0.322,-0.606l-3.086,-1.246c0.036,-0.05 0.071,-0.111 0.107,-0.157c0.495,-0.623 1.008,-0.922 1.399,-1.109c0.173,-0.109 0.362,-0.15 0.462,-0.2c0.106,-0.044 0.162,-0.068 0.162,-0.068l-3.752,-6.13c0,0 -0.119,0.097 -0.342,0.278c-0.217,0.192 -0.552,0.427 -0.925,0.829c-0.762,0.736 -1.785,1.995 -2.421,3.673c-0.647,1.666 -0.899,3.65 -0.693,5.544c0.173,1.911 0.739,3.756 1.457,5.465c1.467,3.411 3.636,6.278 5.52,8.13c0.939,0.93 1.803,1.606 2.433,2.03c0.313,0.215 0.567,0.368 0.746,0.463c0.175,0.1 0.268,0.153 0.268,0.153c0,0 -0.076,-0.076 -0.219,-0.217c-0.146,-0.136 -0.349,-0.348 -0.591,-0.631c-0.486,-0.56 -1.121,-1.405 -1.752,-2.489c-0.746,-1.261 -1.477,-2.873 -2.047,-4.62c1.294,1.565 2.8,3.012 4.358,4.312c3.231,2.69 6.739,4.829 9.449,6.247c2.711,1.427 4.635,2.064 4.635,2.064c0,0 -1.733,-1.047 -4.009,-2.997c-2.277,-1.934 -5.142,-4.734 -7.492,-7.813" style="fill:#474748;"/><path d="M57.295,62.528c0,0 0.131,-0.226 0.377,-0.649c0.271,-0.409 0.58,-1.053 1.16,-1.775c0.279,-0.367 0.58,-0.795 0.935,-1.229c0.357,-0.43 0.765,-0.874 1.197,-1.363c0.448,-0.469 0.956,-0.935 1.483,-1.448c0.544,-0.489 1.147,-0.966 1.771,-1.483c1.292,-0.956 2.747,-1.955 4.4,-2.808c1.636,-0.89 3.457,-1.644 5.386,-2.29c1.93,-0.65 3.986,-1.116 6.093,-1.456c2.111,-0.331 4.278,-0.456 6.442,-0.476c2.164,0.039 4.323,0.203 6.422,0.535c2.095,0.346 4.132,0.826 6.053,1.442c1.919,0.622 3.734,1.334 5.383,2.157c1.661,0.794 3.148,1.706 4.481,2.584c0.654,0.461 1.272,0.913 1.851,1.347c0.556,0.465 1.084,0.907 1.58,1.321c0.952,0.876 1.737,1.674 2.342,2.37c0.635,0.658 1.041,1.272 1.347,1.65c0.29,0.394 0.444,0.605 0.444,0.605c0,0 -0.23,-0.123 -0.664,-0.354c-0.425,-0.237 -1.043,-0.585 -1.839,-0.993c-0.779,-0.432 -1.769,-0.875 -2.865,-1.407c-0.557,-0.244 -1.15,-0.504 -1.776,-0.778c-0.629,-0.25 -1.292,-0.512 -1.982,-0.786c-1.394,-0.506 -2.892,-1.043 -4.509,-1.492c-1.601,-0.487 -3.32,-0.878 -5.092,-1.248c-1.775,-0.363 -3.626,-0.612 -5.502,-0.842c-1.883,-0.172 -3.795,-0.308 -5.71,-0.314c-1.913,-0.01 -3.823,0.081 -5.697,0.251c-1.866,0.211 -3.704,0.455 -5.458,0.832c-1.75,0.384 -3.445,0.8 -5.011,1.336c-1.585,0.493 -3.036,1.102 -4.388,1.677c-0.664,0.317 -1.301,0.622 -1.906,0.911c-0.598,0.319 -1.165,0.622 -1.699,0.907c-0.521,0.308 -1.005,0.608 -1.474,0.867c-0.457,0.271 -0.85,0.545 -1.226,0.785c-0.747,0.472 -1.332,0.915 -1.729,1.19c-0.404,0.277 -0.62,0.424 -0.62,0.424" style="fill:#df5e6e;fill-rule:nonzero;"/><path d="M53.061,96.455c0.003,8.545 0.129,17.031 2.404,25.324c1.897,6.912 5.981,12.752 10.556,18.143c9.662,11.384 23.084,21.846 23.54,38.033c0.036,1.287 2.036,1.29 2,-0c-0.388,-13.797 -9.813,-23.877 -18.701,-33.442c-5.675,-6.108 -11.196,-12.253 -14.386,-20.071c-3.582,-8.776 -3.409,-18.676 -3.413,-27.987c-0,-1.29 -2,-1.29 -2,-0" style="fill:#fff;fill-rule:nonzero;"/><path d="M120.811,93.705c-0.278,15.732 -7.282,30.304 -16.349,42.853c-6.691,9.259 -16.292,17.634 -17.526,29.647c-0.132,1.282 1.87,1.27 2,-0c1.351,-13.142 13.641,-23.034 20.613,-33.513c7.661,-11.514 13.015,-25.051 13.262,-38.987c0.023,-1.291 -1.977,-1.288 -2,-0" style="fill:#fff;fill-rule:nonzero;"/></g></g></svg>